<svg id="visual" viewBox="0 0 900 450" width="900" height="450" xmlns="http://www.w3.org/2000/svg" xmlns:xlink="http://www.w3.org/1999/xlink" version="1.1"><rect x="0" y="0" width="900" height="450" fill="#393E46"></rect><path d="M0 254L18.8 249.5C37.7 245 75.3 236 112.8 240.2C150.3 244.3 187.7 261.7 225.2 257.3C262.7 253 300.3 227 337.8 225.7C375.3 224.3 412.7 247.7 450.2 248C487.7 248.3 525.3 225.7 562.8 222C600.3 218.3 637.7 233.7 675.2 227.3C712.7 221 750.3 193 787.8 183.8C825.3 174.7 862.7 184.3 881.3 189.2L900 194L900 451L881.3 451C862.7 451 825.3 451 787.8 451C750.3 451 712.7 451 675.2 451C637.7 451 600.3 451 562.8 451C525.3 451 487.7 451 450.2 451C412.7 451 375.3 451 337.8 451C300.3 451 262.7 451 225.2 451C187.7 451 150.3 451 112.8 451C75.3 451 37.7 451 18.8 451L0 451Z" fill="#1C6DD0" stroke-linecap="round" stroke-linejoin="miter"></path></svg>